<?xml version="1.0" encoding="UTF-8" standalone="no"?>
<svg
   xmlns:dc="http://purl.org/dc/elements/1.1/"
   xmlns:cc="http://creativecommons.org/ns#"
   xmlns:rdf="http://www.w3.org/1999/02/22-rdf-syntax-ns#"
   xmlns:svg="http://www.w3.org/2000/svg"
   xmlns="http://www.w3.org/2000/svg"
   xmlns:sodipodi="http://sodipodi.sourceforge.net/DTD/sodipodi-0.dtd"
   xmlns:inkscape="http://www.inkscape.org/namespaces/inkscape"
   version="1.1"
   viewBox="0 0 597 188"
   stroke-miterlimit="10"
   id="svg25"
   sodipodi:docname="logo-research.svg"
   width="597"
   height="188"
   style="fill:none;stroke:none;stroke-linecap:square;stroke-miterlimit:10"
   inkscape:version="0.92.4 (5da689c313, 2019-01-14)">
  <metadata
     id="metadata31">
    <rdf:RDF>
      <cc:Work
         rdf:about="">
        <dc:format>image/svg+xml</dc:format>
        <dc:type
           rdf:resource="http://purl.org/dc/dcmitype/StillImage" />
        <dc:title></dc:title>
      </cc:Work>
    </rdf:RDF>
  </metadata>
  <defs
     id="defs29" />
  <sodipodi:namedview
     pagecolor="#ffffff"
     bordercolor="#666666"
     borderopacity="1"
     objecttolerance="10"
     gridtolerance="10"
     guidetolerance="10"
     inkscape:pageopacity="0"
     inkscape:pageshadow="2"
     inkscape:window-width="1920"
     inkscape:window-height="1017"
     id="namedview27"
     showgrid="false"
     fit-margin-top="0"
     fit-margin-left="0"
     fit-margin-right="0"
     fit-margin-bottom="0"
     showborder="true"
     inkscape:showpageshadow="false"
     inkscape:zoom="0.59166667"
     inkscape:cx="480"
     inkscape:cy="630.42254"
     inkscape:window-x="-8"
     inkscape:window-y="-8"
     inkscape:window-maximized="1"
     inkscape:current-layer="g23" />
  <clipPath
     id="p.0">
    <path
       d="M 0,0 H 960 V 720 H 0 Z"
       id="path2"
       inkscape:connector-curvature="0"
       style="clip-rule:nonzero" />
  </clipPath>
  <g
     clip-path="url(#p.0)"
     id="g23"
     transform="translate(0,-532)">
    <path
       d="M 0,0 H 960 V 720 H 0 Z"
       id="path5"
       inkscape:connector-curvature="0"
       style="fill:#000000;fill-opacity:0;fill-rule:evenodd" />
    <path
       d="M 1.6901408,575.14119 H 313.34367 V 696.33803 H 1.6901408 Z"
       id="path7"
       inkscape:connector-curvature="0"
       style="fill:#000000;fill-opacity:0;fill-rule:evenodd" />
    <path
       d="m 62.658891,664.78117 h -44.17188 v -61.07813 h 44.17188 v 11.8125 h -28.5 v 10.54688 h 26.45312 v 11.8125 h -26.45312 v 15.09375 h 28.5 z m 60.537109,0 h -17.21875 l -9.843749,-13.78125 -10.09375,13.78125 h -16.90625 l 18.17187,-23.01563 -17.875,-23.04687 h 17.21875 l 9.6875,13.53125 9.718749,-13.53125 h 16.9375 l -17.92187,22.6875 z m 32.03516,1.23437 q -6.03125,0 -11.01563,-1.4375 -4.98437,-1.4375 -8.67187,-4.4375 -3.65625,-2.98437 -5.67188,-7.53125 -2,-4.5625 -2,-10.67187 0,-6.4375 2.15625,-11.10938 2.15625,-4.6875 6,-7.76562 3.73438,-2.90625 8.60938,-4.25 4.89062,-1.35938 10.14062,-1.35938 4.71875,0 8.6875,1.03125 3.98438,1.01563 7.4375,2.65625 v 12.59375 h -2.09375 q -0.85937,-0.73437 -2.07812,-1.71875 -1.20313,-0.98437 -2.96875,-1.9375 -1.6875,-0.90625 -3.70313,-1.5 -2,-0.59375 -4.67187,-0.59375 -5.90625,0 -9.07813,3.76563 -3.17187,3.75 -3.17187,10.1875 0,6.64062 3.25,10.09375 3.26562,3.4375 9.25,3.4375 2.79687,0 5.03125,-0.625 2.23437,-0.64063 3.70312,-1.5 1.40625,-0.82813 2.46875,-1.71875 1.0625,-0.90625 1.96875,-1.78125 h 2.09375 v 12.59375 q -3.48437,1.64062 -7.28125,2.60937 -3.79687,0.96875 -8.39062,0.96875 z"
       id="path9"
       inkscape:connector-curvature="0"
       style="fill:#000000;fill-rule:nonzero" />
    <path
       d="m 214.49874,664.78117 h -35.76562 v -10.82813 h 10 v -39.42187 h -10 v -10.82813 h 35.76562 v 10.82813 h -10.01562 v 39.42187 h 10.01562 z m 70.54297,-30.46875 q 0,8.53125 -3.90625,15.28125 -3.89063,6.73437 -9.82813,10.34375 -4.46875,2.70312 -9.8125,3.78125 -5.32812,1.0625 -12.625,1.0625 h -21.53125 v -61.07813 h 22.14063 q 7.46875,0 12.875,1.25 5.42187,1.25 9.10937,3.54688 6.32813,3.85937 9.95313,10.40625 3.625,6.54687 3.625,15.40625 z m -16.28125,-0.125 q 0,-6.03125 -2.20313,-10.3125 -2.1875,-4.29688 -6.9375,-6.71875 -2.42187,-1.1875 -4.95312,-1.60938 -2.51563,-0.4375 -7.60938,-0.4375 h -3.96875 v 38.23438 h 3.96875 q 5.625,0 8.25,-0.51563 2.625,-0.51562 5.125,-1.875 4.3125,-2.45312 6.3125,-6.57812 2.01563,-4.125 2.01563,-10.1875 z"
       id="path11"
       inkscape:connector-curvature="0"
       style="fill:#0000ff;fill-rule:nonzero" />
    <path
       d="m 173.69877,676.06741 c 17.49994,25.88303 49.6958,37.52573 79.70297,28.82223 30.00714,-8.70346 50.9765,-35.76657 51.91104,-66.99646 0.93451,-31.22988 -18.37912,-59.49844 -47.81216,-69.98059 -29.43305,-10.48214 -62.26746,-0.78543 -81.28375,24.00492 l 57.12811,43.82211 z"
       id="path13"
       inkscape:connector-curvature="0"
       style="fill:#000000;fill-opacity:0;fill-rule:evenodd" />
    <path
       d="m 173.69877,676.06741 c 17.49994,25.88303 49.6958,37.52573 79.70297,28.82223 30.00714,-8.70346 50.9765,-35.76657 51.91104,-66.99646 0.93451,-31.22988 -18.37912,-59.49844 -47.81216,-69.98059 -29.43305,-10.48214 -62.26746,-0.78543 -81.28375,24.00492"
       id="path15"
       inkscape:connector-curvature="0"
       style="fill:#000000;fill-opacity:0;fill-rule:evenodd" />
    <path
       d="m 173.69877,676.06741 c 17.49994,25.88303 49.6958,37.52573 79.70297,28.82223 30.00714,-8.70346 50.9765,-35.76657 51.91104,-66.99646 0.93451,-31.22988 -18.37912,-59.49844 -47.81216,-69.98059 -29.43305,-10.48214 -62.26746,-0.78543 -81.28375,24.00492"
       id="path17"
       inkscape:connector-curvature="0"
       style="fill-rule:evenodd;stroke:#cc0000;stroke-width:12;stroke-linecap:butt;stroke-linejoin:round" />
    <path
       d="m 313.34498,590.49553 h 303.59055 v 90.48816 H 313.34498 Z"
       id="path19"
       inkscape:connector-curvature="0"
       style="fill:#000000;fill-opacity:0;fill-rule:evenodd" />
    <path
       d="m 326.95436,655.81551 v -41.98438 h 18.625 q 5.60937,0 8.53125,1.14063 2.92187,1.125 4.65625,3.98437 1.75,2.85938 1.75,6.32813 0,4.46875 -2.89063,7.53125 -2.89062,3.0625 -8.9375,3.89062 2.21875,1.0625 3.35938,2.09375 2.4375,2.23438 4.60937,5.59375 l 7.29688,11.42188 h -6.98438 l -5.54687,-8.73438 q -2.4375,-3.78125 -4.01563,-5.78125 -1.57812,-2.01562 -2.82812,-2.8125 -1.23438,-0.79687 -2.53125,-1.10937 -0.9375,-0.20313 -3.09375,-0.20313 h -6.4375 v 18.64063 z m 5.5625,-23.45313 h 11.9375 q 3.8125,0 5.95312,-0.78125 2.15625,-0.79687 3.26563,-2.53125 1.125,-1.73437 1.125,-3.76562 0,-2.98438 -2.17188,-4.89063 -2.15625,-1.92187 -6.82812,-1.92187 h -13.28125 z m 56.87527,13.65625 5.32813,0.65625 q -1.26563,4.67188 -4.67188,7.25 -3.40625,2.57813 -8.70312,2.57813 -6.67188,0 -10.59375,-4.10938 -3.90625,-4.10937 -3.90625,-11.53125 0,-7.67187 3.95312,-11.90625 3.95313,-4.25 10.26563,-4.25 6.09375,0 9.95312,4.15625 3.875,4.15625 3.875,11.6875 0,0.45313 -0.0312,1.375 h -22.6875 q 0.29688,5.01563 2.84375,7.6875 2.54688,2.65625 6.35938,2.65625 2.82812,0 4.82812,-1.48437 2.01563,-1.5 3.1875,-4.76563 z m -16.92187,-8.32812 h 16.98437 q -0.34375,-3.84375 -1.95312,-5.76563 -2.46875,-2.96875 -6.39063,-2.96875 -3.54687,0 -5.96875,2.375 -2.42187,2.375 -2.67187,6.35938 z m 26.65308,9.04687 5.10937,-0.79687 q 0.42188,3.0625 2.375,4.70312 1.96875,1.625 5.5,1.625 3.54688,0 5.26563,-1.4375 1.71875,-1.45312 1.71875,-3.40625 0,-1.75 -1.51563,-2.75 -1.0625,-0.6875 -5.26562,-1.75 -5.67188,-1.4375 -7.875,-2.46875 -2.1875,-1.04687 -3.32813,-2.89062 -1.125,-1.85938 -1.125,-4.09375 0,-2.03125 0.9375,-3.76563 0.9375,-1.73437 2.53125,-2.875 1.20313,-0.89062 3.28125,-1.5 2.07813,-0.625 4.45313,-0.625 3.57812,0 6.28125,1.03125 2.71875,1.03125 4,2.79688 1.29687,1.76562 1.78125,4.71875 l -5.04688,0.6875 q -0.34375,-2.35938 -2,-3.67188 -1.64062,-1.3125 -4.64062,-1.3125 -3.54688,0 -5.07813,1.17188 -1.51562,1.17187 -1.51562,2.75 0,1 0.64062,1.79687 0.625,0.82813 1.96875,1.375 0.78125,0.29688 4.5625,1.32813 5.46875,1.45312 7.625,2.39062 2.17188,0.92188 3.39063,2.70313 1.23437,1.76562 1.23437,4.40625 0,2.57812 -1.5,4.85937 -1.5,2.28125 -4.34375,3.53125 -2.82812,1.23438 -6.40625,1.23438 -5.9375,0 -9.04687,-2.45313 -3.10938,-2.46875 -3.96875,-7.3125 z m 52.21875,-0.71875 5.32812,0.65625 q -1.26562,4.67188 -4.67187,7.25 -3.40625,2.57813 -8.70313,2.57813 -6.67187,0 -10.59375,-4.10938 -3.90625,-4.10937 -3.90625,-11.53125 0,-7.67187 3.95313,-11.90625 3.95312,-4.25 10.26562,-4.25 6.09375,0 9.95313,4.15625 3.875,4.15625 3.875,11.6875 0,0.45313 -0.0312,1.375 h -22.6875 q 0.29687,5.01563 2.84375,7.6875 2.54687,2.65625 6.35937,2.65625 2.82813,0 4.82813,-1.48437 2.01562,-1.5 3.1875,-4.76563 z m -16.92188,-8.32812 h 16.98438 q -0.34375,-3.84375 -1.95313,-5.76563 -2.46875,-2.96875 -6.39062,-2.96875 -3.54688,0 -5.96875,2.375 -2.42188,2.375 -2.67188,6.35938 z m 48.57495,14.375 q -2.875,2.4375 -5.53125,3.4375 -2.64062,1 -5.67187,1 -5.01563,0 -7.70313,-2.4375 -2.6875,-2.45313 -2.6875,-6.26563 0,-2.23437 1.01563,-4.07812 1.01562,-1.85938 2.65625,-2.96875 1.65625,-1.125 3.71875,-1.6875 1.51562,-0.40625 4.57812,-0.78125 6.23438,-0.73438 9.1875,-1.76563 0.0312,-1.0625 0.0312,-1.35937 0,-3.14063 -1.45312,-4.4375 -1.98438,-1.75 -5.875,-1.75 -3.64063,0 -5.375,1.28125 -1.73438,1.28125 -2.5625,4.51562 l -5.04688,-0.6875 q 0.6875,-3.23437 2.26563,-5.21875 1.57812,-2 4.54687,-3.07812 2.98438,-1.07813 6.90625,-1.07813 3.90625,0 6.32813,0.92188 2.4375,0.92187 3.57812,2.3125 1.15625,1.375 1.60938,3.5 0.26562,1.3125 0.26562,4.75 v 6.875 q 0,7.1875 0.32813,9.09375 0.32812,1.90625 1.29687,3.65625 h -5.375 q -0.8125,-1.60938 -1.03125,-3.75 z m -0.4375,-11.51563 q -2.79687,1.14063 -8.42187,1.95313 -3.17188,0.45312 -4.5,1.03125 -1.3125,0.5625 -2.03125,1.67187 -0.70313,1.09375 -0.70313,2.45313 0,2.0625 1.54688,3.4375 1.5625,1.375 4.57812,1.375 2.96875,0 5.28125,-1.29688 2.32813,-1.3125 3.42188,-3.57812 0.82812,-1.75 0.82812,-5.15625 z m 13.15308,15.26563 v -30.42188 h 4.64062 v 4.60938 q 1.76563,-3.23438 3.26563,-4.26563 1.51562,-1.03125 3.3125,-1.03125 2.60937,0 5.29687,1.67188 l -1.76562,4.78125 q -1.89063,-1.125 -3.78125,-1.125 -1.6875,0 -3.04688,1.01562 -1.34375,1.01563 -1.90625,2.82813 -0.85937,2.75 -0.85937,6.01562 v 15.92188 z m 39.43921,-11.14063 5.0625,0.65625 q -0.82813,5.25 -4.25,8.21875 -3.42188,2.95313 -8.40625,2.95313 -6.25,0 -10.04688,-4.07813 -3.78125,-4.07812 -3.78125,-11.70312 0,-4.92188 1.625,-8.60938 1.64063,-3.70312 4.96875,-5.54687 3.34375,-1.85938 7.26563,-1.85938 4.95312,0 8.09375,2.51563 3.15625,2.5 4.04687,7.10937 l -5.01562,0.78125 q -0.71875,-3.0625 -2.53125,-4.60937 -1.8125,-1.54688 -4.39063,-1.54688 -3.90625,0 -6.34375,2.79688 -2.42187,2.78125 -2.42187,8.82812 0,6.125 2.34375,8.90625 2.34375,2.78125 6.125,2.78125 3.04687,0 5.07812,-1.85937 2.03125,-1.875 2.57813,-5.73438 z m 9.46875,11.14063 v -41.98438 h 5.15625 v 15.0625 q 3.60937,-4.1875 9.10937,-4.1875 3.39063,0 5.875,1.34375 2.5,1.32813 3.5625,3.67188 1.07813,2.34375 1.07813,6.8125 v 19.28125 h -5.15625 v -19.28125 q 0,-3.85938 -1.67188,-5.625 -1.67187,-1.76563 -4.75,-1.76563 -2.28125,0 -4.3125,1.20313 -2.01562,1.1875 -2.875,3.21875 -0.85937,2.03125 -0.85937,5.60937 v 16.64063 z"
       id="path21"
       inkscape:connector-curvature="0"
       style="fill:#999999;fill-rule:nonzero" />
  </g>
</svg>
